HIERARCHY
ROOT Hips
{
	OFFSET -2.439626 86.173584 3.652770
	CHANNELS 6 Xposition Yposition Zposition Zrotation Yrotation Xrotation 
	JOINT Spine
	{
		OFFSET 0.000000 8.814246 -2.080107
		CHANNELS 3 Zrotation Yrotation Xrotation
		JOINT Spine1
		{
			OFFSET -0.000000 8.844141 0.000000
			CHANNELS 3 Zrotation Yrotation Xrotation
			JOINT Spine2
			{
				OFFSET -0.000000 11.682268 -0.000000
				CHANNELS 3 Zrotation Yrotation Xrotation
				JOINT Spine3
				{
					OFFSET -0.000000 11.746700 0.000000
					CHANNELS 3 Zrotation Yrotation Xrotation
					JOINT Neck
					{
						OFFSET -0.000000 17.658264 -0.000000
						CHANNELS 3 Zrotation Yrotation Xrotation
						JOINT Neck1
						{
							OFFSET -0.000000 5.101515 0.000000
							CHANNELS 3 Zrotation Yrotation Xrotation
							JOINT Head
							{
								OFFSET -0.000000 5.101515 -0.000000
								CHANNELS 3 Zrotation Yrotation Xrotation
								JOINT HeadEnd
								{
									OFFSET -0.000000 11.655085 0.000000
									CHANNELS 3 Zrotation Yrotation Xrotation
									End Site
									{
										OFFSET 0.000000 0.000000 0.000000
									}
								}
							}
						}
					}
					JOINT RightShoulder
					{
						OFFSET -2.625389 11.175210 -0.000000
						CHANNELS 3 Zrotation Yrotation Xrotation
						JOINT RightArm
						{
							OFFSET 0.000000 10.434715 -0.000000
							CHANNELS 3 Zrotation Yrotation Xrotation
							JOINT RightForeArm
							{
								OFFSET -0.000000 29.628420 -0.000000
								CHANNELS 3 Zrotation Yrotation Xrotation
								JOINT RightHand
								{
									OFFSET -0.000000 22.857611 0.000000
									CHANNELS 3 Zrotation Yrotation Xrotation
									JOINT RightHandThumb1
									{
										OFFSET -2.867323 3.959563 2.944291
										CHANNELS 3 Zrotation Yrotation Xrotation
										JOINT RightHandThumb2
										{
											OFFSET -0.000000 3.350399 0.000000
											CHANNELS 3 Zrotation Yrotation Xrotation
											JOINT RightHandThumb3
											{
												OFFSET 0.000000 3.756509 0.000000
												CHANNELS 3 Zrotation Yrotation Xrotation
												JOINT RightHandThumb4
												{
													OFFSET -0.000000 3.147345 -0.000000
													CHANNELS 3 Zrotation Yrotation Xrotation
													End Site
													{
														OFFSET 0.000000 0.000000 0.000000
													}
												}
											}
										}
									}
									JOINT RightHandIndex1
									{
										OFFSET -0.086752 10.030893 2.345280
										CHANNELS 3 Zrotation Yrotation Xrotation
										JOINT RightHandIndex2
										{
											OFFSET -0.000000 4.061090 -0.000000
											CHANNELS 3 Zrotation Yrotation Xrotation
											JOINT RightHandIndex3
											{
												OFFSET -0.000000 3.248873 -0.000000
												CHANNELS 3 Zrotation Yrotation Xrotation
												JOINT RightHandIndex4
												{
													OFFSET -0.000000 2.639709 -0.000000
													CHANNELS 3 Zrotation Yrotation Xrotation
													End Site
													{
														OFFSET 0.000000 0.000000 0.000000
													}
												}
											}
										}
									}
									JOINT RightHandMiddle1
									{
										OFFSET 0.104102 9.502952 0.006768
										CHANNELS 3 Zrotation Yrotation Xrotation
										JOINT RightHandMiddle2
										{
											OFFSET -0.000000 4.568727 -0.000000
											CHANNELS 3 Zrotation Yrotation Xrotation
											JOINT RightHandMiddle3
											{
												OFFSET -0.000000 3.654981 0.000000
												CHANNELS 3 Zrotation Yrotation Xrotation
												JOINT RightHandMiddle4
												{
													OFFSET 0.000000 2.741236 0.000000
													CHANNELS 3 Zrotation Yrotation Xrotation
													End Site
													{
														OFFSET 0.000000 0.000000 0.000000
													}
												}
											}
										}
									}
									JOINT RightHandRing1
									{
										OFFSET 0.086752 8.921708 -2.267442
										CHANNELS 3 Zrotation Yrotation Xrotation
										JOINT RightHandRing2
										{
											OFFSET -0.000000 4.061090 -0.000000
											CHANNELS 3 Zrotation Yrotation Xrotation
											JOINT RightHandRing3
											{
												OFFSET 0.000000 3.654981 0.000000
												CHANNELS 3 Zrotation Yrotation Xrotation
												JOINT RightHandRing4
												{
													OFFSET 0.000000 2.741236 0.000000
													CHANNELS 3 Zrotation Yrotation Xrotation
													End Site
													{
														OFFSET 0.000000 0.000000 0.000000
													}
												}
											}
										}
									}
									JOINT RightHandPinky1
									{
										OFFSET -0.173504 7.976997 -4.467199
										CHANNELS 3 Zrotation Yrotation Xrotation
										JOINT RightHandPinky2
										{
											OFFSET -0.000000 3.350399 -0.000000
											CHANNELS 3 Zrotation Yrotation Xrotation
											JOINT RightHandPinky3
											{
												OFFSET -0.000000 2.842763 -0.000000
												CHANNELS 3 Zrotation Yrotation Xrotation
												JOINT RightHandPinky4
												{
													OFFSET 0.000000 2.639709 -0.000000
													CHANNELS 3 Zrotation Yrotation Xrotation
													End Site
													{
														OFFSET 0.000000 0.000000 0.000000
													}
												}
											}
										}
									}
									JOINT RightForeArmEnd
									{
										OFFSET 0.000000 0.000000 0.000000
										CHANNELS 3 Zrotation Yrotation Xrotation
										End Site
										{
											OFFSET 0.000000 0.000000 0.000000
										}
									}
								}
								JOINT RightArmEnd
								{
									OFFSET 0.000000 0.000000 0.000000
									CHANNELS 3 Zrotation Yrotation Xrotation
									End Site
									{
										OFFSET 0.000000 0.000000 0.000000
									}
								}
							}
						}
					}
					JOINT LeftShoulder
					{
						OFFSET 2.625389 11.175210 0.000000
						CHANNELS 3 Zrotation Yrotation Xrotation
						JOINT LeftArm
						{
							OFFSET 0.000000 10.813635 0.000000
							CHANNELS 3 Zrotation Yrotation Xrotation
							JOINT LeftForeArm
							{
								OFFSET 0.000000 28.724781 -0.000000
								CHANNELS 3 Zrotation Yrotation Xrotation
								JOINT LeftHand
								{
									OFFSET 0.644384 25.716167 -0.328871
									CHANNELS 3 Zrotation Yrotation Xrotation
									JOINT LeftHandThumb1
									{
										OFFSET 2.867323 3.959563 2.944291
										CHANNELS 3 Zrotation Yrotation Xrotation
										JOINT LeftHandThumb2
										{
											OFFSET -0.000000 3.350399 0.000000
											CHANNELS 3 Zrotation Yrotation Xrotation
											JOINT LeftHandThumb3
											{
												OFFSET -0.000000 3.756509 0.000000
												CHANNELS 3 Zrotation Yrotation Xrotation
												JOINT LeftHandThumb4
												{
													OFFSET -0.000000 3.100000 0.000000
													CHANNELS 3 Zrotation Yrotation Xrotation
													End Site
													{
														OFFSET 0.000000 0.000000 0.000000
													}
												}
											}
										}
									}
									JOINT LeftHandIndex1
									{
										OFFSET 0.086752 10.030893 2.345280
										CHANNELS 3 Zrotation Yrotation Xrotation
										JOINT LeftHandIndex2
										{
											OFFSET -0.000000 4.061090 0.000000
											CHANNELS 3 Zrotation Yrotation Xrotation
											JOINT LeftHandIndex3
											{
												OFFSET -0.000000 3.248873 0.000000
												CHANNELS 3 Zrotation Yrotation Xrotation
												JOINT LeftHandIndex4
												{
													OFFSET -0.000000 2.639709 0.000000
													CHANNELS 3 Zrotation Yrotation Xrotation
													End Site
													{
														OFFSET 0.000000 0.000000 0.000000
													}
												}
											}
										}
									}
									JOINT LeftHandMiddle1
									{
										OFFSET -0.104102 9.502952 0.006768
										CHANNELS 3 Zrotation Yrotation Xrotation
										JOINT LeftHandMiddle2
										{
											OFFSET -0.000000 4.568727 0.000000
											CHANNELS 3 Zrotation Yrotation Xrotation
											JOINT LeftHandMiddle3
											{
												OFFSET 0.000000 3.654981 0.000000
												CHANNELS 3 Zrotation Yrotation Xrotation
												JOINT LeftHandMiddle4
												{
													OFFSET -0.000000 2.741236 0.000000
													CHANNELS 3 Zrotation Yrotation Xrotation
													End Site
													{
														OFFSET 0.000000 0.000000 0.000000
													}
												}
											}
										}
									}
									JOINT LeftHandRing1
									{
										OFFSET -0.086752 8.921708 -2.267442
										CHANNELS 3 Zrotation Yrotation Xrotation
										JOINT LeftHandRing2
										{
											OFFSET 0.000000 4.061090 -0.000000
											CHANNELS 3 Zrotation Yrotation Xrotation
											JOINT LeftHandRing3
											{
												OFFSET 0.000000 3.654981 -0.000000
												CHANNELS 3 Zrotation Yrotation Xrotation
												JOINT LeftHandRing4
												{
													OFFSET 0.000000 2.741236 -0.000000
													CHANNELS 3 Zrotation Yrotation Xrotation
													End Site
													{
														OFFSET 0.000000 0.000000 0.000000
													}
												}
											}
										}
									}
									JOINT LeftHandPinky1
									{
										OFFSET 0.173504 7.976997 -4.467199
										CHANNELS 3 Zrotation Yrotation Xrotation
										JOINT LeftHandPinky2
										{
											OFFSET -0.000000 3.350399 0.000000
											CHANNELS 3 Zrotation Yrotation Xrotation
											JOINT LeftHandPinky3
											{
												OFFSET 0.000000 2.842763 -0.000000
												CHANNELS 3 Zrotation Yrotation Xrotation
												JOINT LeftHandPinky4
												{
													OFFSET -0.000000 2.639709 0.000000
													CHANNELS 3 Zrotation Yrotation Xrotation
													End Site
													{
														OFFSET 0.000000 0.000000 0.000000
													}
												}
											}
										}
									}
									JOINT LeftForeArmEnd
									{
										OFFSET 0.000000 0.000000 0.000000
										CHANNELS 3 Zrotation Yrotation Xrotation
										End Site
										{
											OFFSET 0.000000 0.000000 0.000000
										}
									}
								}
								JOINT LeftArmEnd
								{
									OFFSET 0.000000 0.000000 0.000000
									CHANNELS 3 Zrotation Yrotation Xrotation
									End Site
									{
										OFFSET 0.000000 0.000000 0.000000
									}
								}
							}
						}
					}
				}
			}
		}
	}
	JOINT RightUpLeg
	{
		OFFSET -11.289943 0.000000 0.000000
		CHANNELS 3 Zrotation Yrotation Xrotation
		JOINT RightLeg
		{
			OFFSET -0.000000 -38.200325 0.000000
			CHANNELS 3 Zrotation Yrotation Xrotation
			JOINT RightFoot
			{
				OFFSET -0.000000 -39.900856 -0.000000
				CHANNELS 3 Zrotation Yrotation Xrotation
				JOINT RightToeBase
				{
					OFFSET 0.000000 -0.000000 15.261641
					CHANNELS 3 Zrotation Yrotation Xrotation
					JOINT RightToeBaseEnd
					{
						OFFSET -0.000000 -0.000000 7.370709
						CHANNELS 3 Zrotation Yrotation Xrotation
						End Site
						{
							OFFSET 0.000000 0.000000 0.000000
						}
					}
				}
				JOINT RightLegEnd
				{
					OFFSET 0.000000 0.000000 0.000000
					CHANNELS 3 Zrotation Yrotation Xrotation
					End Site
					{
						OFFSET 0.000000 0.000000 0.000000
					}
				}
			}
			JOINT RightUpLegEnd
			{
				OFFSET 0.000000 0.000000 0.000000
				CHANNELS 3 Zrotation Yrotation Xrotation
				End Site
				{
					OFFSET 0.000000 0.000000 0.000000
				}
			}
		}
	}
	JOINT LeftUpLeg
	{
		OFFSET 11.315661 0.000000 -0.000000
		CHANNELS 3 Zrotation Yrotation Xrotation
		JOINT LeftLeg
		{
			OFFSET 0.000000 -38.200325 0.000000
			CHANNELS 3 Zrotation Yrotation Xrotation
			JOINT LeftFoot
			{
				OFFSET -0.000000 -39.900856 -0.000000
				CHANNELS 3 Zrotation Yrotation Xrotation
				JOINT LeftToeBase
				{
					OFFSET 0.000000 0.000000 15.261641
					CHANNELS 3 Zrotation Yrotation Xrotation
					JOINT LeftToeBaseEnd
					{
						OFFSET -0.000000 0.000000 7.539996
						CHANNELS 3 Zrotation Yrotation Xrotation
						End Site
						{
							OFFSET 0.000000 0.000000 0.000000
						}
					}
				}
				JOINT LeftLegEnd
				{
					OFFSET 0.000000 0.000000 0.000000
					CHANNELS 3 Zrotation Yrotation Xrotation
					End Site
					{
						OFFSET 0.000000 0.000000 0.000000
					}
				}
			}
			JOINT LeftUpLegEnd
			{
				OFFSET 0.000000 0.000000 0.000000
				CHANNELS 3 Zrotation Yrotation Xrotation
				End Site
				{
					OFFSET 0.000000 0.000000 0.000000
				}
			}
		}
	}
}
MOTION
Frames: 4
Frame Time: 0.016667
-2.439626 86.173584 3.652770 -4.340192 -0.540032 -7.079077 8.189545 -1.373846 -0.506912 -14.959209 5.092192 10.375172 18.966938 -3.659722 1.468054 -4.205472 0.926831 -0.017792 -5.318305 -5.444463 10.252134 3.092715 -4.217206 -7.856593 0.903631 -3.049664 -23.483288 0.000000 0.000000 0.000000 94.569145 -0.371653 4.186651 56.153770 -34.058048 3.889308 -0.747809 13.852534 43.881889 1.021416 24.343164 -10.248108 7.651653 -1.517517 41.228924 0.000000 0.000000 -18.719999 0.000000 0.000000 -13.000000 0.000000 0.000000 0.000000 3.538488 16.643246 -12.102950 4.745957 -0.937095 -1.442020 4.745320 0.059473 -1.359301 0.000000 0.000000 0.000000 7.328285 6.815425 -13.250185 6.216766 -0.959940 -0.760334 6.215802 0.041430 -0.652044 0.000000 0.000000 0.000000 15.221197 -8.768272 -13.134092 9.164553 1.887652 1.438404 9.159541 -0.087461 1.119936 0.000000 0.000000 0.000000 22.863670 -25.240561 -14.855993 10.661115 3.532511 5.017934 10.640880 -0.398628 4.278499 0.000000 0.000000 0.000000 0.000000 0.000000 0.000000 0.000000 0.000000 0.000000 -95.493698 0.370292 3.583286 -73.075745 33.891457 -16.285570 -5.109317 -15.669598 45.339783 -2.525950 -16.306862 -16.507067 -10.039282 1.787270 40.137463 0.000001 0.000000 -24.480000 0.000000 0.000000 -16.999998 0.000000 0.000000 0.000000 -16.512638 16.734129 -10.445769 -9.063457 -0.767270 2.746433 -9.062700 0.220592 2.588984 0.000000 0.000000 0.000000 -15.787350 6.843281 -12.205705 -9.963078 -0.890130 1.220863 -9.961883 0.095095 1.046403 0.000000 0.000000 0.000000 -14.604226 -8.753955 -13.535376 -11.609344 1.813642 -1.814567 -11.603611 -0.140648 -1.412848 0.000000 0.000000 0.000000 -10.550231 -24.894320 -17.922760 -11.886624 3.418959 -5.588609 -11.865608 -0.495488 -4.765315 0.000000 0.000000 0.000000 0.000000 0.000000 0.000000 0.000000 0.000000 0.000000 1.364321 2.231452 1.814133 -0.197430 -0.639211 17.164349 -3.594904 -0.852641 14.522296 0.352348 -0.340583 -28.699484 0.000000 0.000000 0.000000 0.000000 0.000000 0.000000 0.000000 0.000000 0.000000 16.649248 -3.882379 -2.065566 0.455056 1.181101 21.072592 -9.332852 11.826220 16.532209 0.806439 0.599743 -27.755955 0.000000 0.000000 0.000000 0.000000 0.000000 0.000000 0.000000 0.000000 0.000000 
-1.121101 86.005058 3.872865 -3.622873 -1.361532 -9.670664 3.094236 -0.830935 5.055110 -6.093354 1.391613 5.345372 9.473231 -2.898198 6.047551 0.900799 0.723537 1.007326 -3.282732 -5.343273 10.964820 3.209103 -2.935177 -5.975933 0.012459 -3.980130 -22.019329 0.000000 0.000000 0.000000 94.183678 -0.627889 4.571667 55.095364 -33.706474 9.509167 0.297575 11.030244 38.669022 -3.351640 20.587032 -8.112963 7.611961 -1.584422 41.164989 0.000000 0.000048 -18.760887 0.000011 0.000014 -13.060661 0.000006 -0.000008 -0.000016 3.721373 16.094248 -10.045317 5.813332 -0.958372 -1.514724 6.038709 -0.014206 -1.451479 -0.000020 -0.000041 -0.000021 6.828258 6.620251 -11.071849 6.449173 -0.943448 -0.702764 6.551871 0.027325 -0.618734 0.000058 0.000026 0.000004 13.432528 -8.565036 -10.360895 8.312042 1.895501 1.100868 8.188054 -0.041194 0.867671 0.000014 -0.000238 -0.000000 20.450491 -24.405014 -12.107759 9.169576 3.753777 3.278871 8.999731 -0.103743 2.826232 -0.000467 -0.000010 0.000071 0.000000 0.000000 0.000000 0.000000 0.000000 0.000000 -95.560379 1.655751 3.970630 -72.858574 36.907413 -13.118969 -4.064799 -19.757872 46.675781 -1.489612 -10.724236 -16.207962 -10.153738 1.823156 40.107895 -0.000004 0.000023 -24.621031 0.000035 -0.000021 -16.904697 -0.000539 -0.000022 0.002803 -15.954309 16.237299 -9.748711 -9.187893 -0.807732 2.237981 -9.202258 0.135840 2.146939 -0.000003 0.001242 -0.000003 -15.043757 6.665823 -11.115550 -9.835893 -0.893162 0.971845 -9.445243 0.063602 0.843269 -0.001377 -0.000027 -0.000015 -13.202364 -8.457729 -12.116738 -10.122187 1.846820 -1.424946 -9.988268 -0.080533 -1.111889 0.000917 -0.000001 0.000010 -9.079816 -23.951624 -16.096403 -9.139045 3.526848 -4.001736 -9.377111 -0.253795 -3.338125 -0.000840 -0.000009 -0.000012 0.000000 0.000000 0.000000 0.000000 0.000000 0.000000 -0.692211 1.834011 4.423105 -0.286079 -0.853383 18.616659 -1.536047 -0.611916 14.181649 0.306747 0.083043 -28.685711 0.000000 0.000000 0.000000 0.000000 0.000000 0.000000 0.000000 0.000000 0.000000 14.520013 -1.712876 -0.331132 0.536304 1.241456 24.627878 -8.121941 10.744304 15.263377 0.849753 0.121255 -30.269030 0.000000 0.000000 0.000000 0.000000 0.000000 0.000000 0.000000 0.000000 0.000000 
-0.094846 86.193573 4.116581 -3.245086 -1.780069 -9.818782 2.561036 -0.782823 5.291335 -5.902834 1.315935 5.200355 8.865182 -2.877185 6.325613 1.153755 0.599605 0.996622 -3.208208 -4.997814 11.041125 3.451892 -2.412492 -5.961452 -0.083302 -4.053443 -22.249550 0.000000 0.000000 0.000000 94.271812 -0.708171 4.199751 55.872875 -33.991570 8.635506 0.324292 11.362166 39.460495 -3.261717 19.915949 -8.318952 8.003092 -1.632421 40.993481 0.000012 0.000030 -19.675621 0.000022 0.000012 -13.682487 0.000011 -0.000004 -0.000016 4.935208 16.107796 -10.236941 6.216506 -0.945883 -1.547295 6.475237 0.001823 -1.488270 -0.000013 -0.000023 -0.000022 7.809345 6.616175 -11.213692 6.840124 -0.938663 -0.718136 6.919224 0.030554 -0.632286 0.000054 -0.000037 0.000001 14.122058 -8.517224 -10.466915 8.403972 1.886986 1.103300 8.251151 -0.046901 0.868880 0.000001 -0.000414 -0.000005 20.833712 -24.194704 -12.136057 8.965015 3.734769 3.263458 8.816131 -0.118381 2.796650 -0.000599 -0.000004 0.000061 0.000000 0.000000 0.000000 0.000000 0.000000 0.000000 -95.562218 1.625603 3.780794 -72.401634 37.265026 -13.179547 -4.007041 -19.520182 47.940449 -1.636399 -9.874913 -17.091240 -10.290907 1.826339 40.048374 0.000001 0.000025 -24.950974 0.000005 -0.000018 -17.142004 -0.000941 -0.000013 0.002786 -16.135946 16.310093 -9.620711 -9.481318 -0.795344 2.286868 -9.568195 0.148877 2.181268 0.000024 0.001313 -0.000023 -15.280254 6.689531 -11.030820 -10.086736 -0.888766 0.984731 -9.762321 0.066586 0.853918 -0.000849 -0.000035 -0.000055 -13.476097 -8.455076 -12.304688 -10.275365 1.840803 -1.437481 -10.149199 -0.083715 -1.118438 0.000815 0.000001 0.000000 -9.433260 -23.899080 -16.460928 -9.227901 3.514537 -3.993170 -9.480383 -0.259955 -3.348335 -0.000743 -0.000002 -0.000030 0.000000 0.000000 0.000000 0.000000 0.000000 0.000000 -1.950639 2.285438 4.907336 -0.301245 -0.902349 18.445969 -0.918247 -0.605897 14.794205 0.234913 0.033264 -28.972483 0.000000 0.000000 0.000000 0.000000 0.000000 0.000000 0.000000 0.000000 0.000000 13.373898 -1.505181 0.842088 0.496091 1.195108 23.551241 -7.462391 10.442774 15.410431 0.786850 0.095169 -30.379246 0.000000 0.000000 0.000000 0.000000 0.000000 0.000000 0.000000 0.000000 0.000000 
0.917725 86.348915 4.368301 -2.750200 -2.279073 -10.049894 2.060368 -0.707301 5.473977 -5.713474 1.256177 5.109161 8.293995 -2.672756 6.480633 1.332592 0.540667 1.066570 -3.261350 -4.789521 11.176618 3.634836 -2.156866 -5.901391 -0.087620 -4.110466 -22.395939 0.000000 0.000000 0.000000 94.402603 -0.737151 3.881151 56.483757 -34.310246 8.067266 0.368257 11.649677 39.971066 -3.090952 19.607893 -8.782727 8.266523 -1.669327 40.871140 0.000014 0.000030 -20.283081 0.000022 0.000012 -14.089868 0.000010 -0.000005 -0.000014 5.872693 16.067631 -10.243051 6.519017 -0.936333 -1.566543 6.792874 0.011701 -1.509670 -0.000011 -0.000023 -0.000021 8.572964 6.595008 -11.240007 7.117441 -0.934310 -0.727722 7.186636 0.032908 -0.642674 0.000052 -0.000059 0.000004 14.655531 -8.466430 -10.486710 8.479106 1.877692 1.110328 8.309810 -0.052345 0.873243 0.000000 -0.000557 -0.000006 21.024569 -24.012527 -12.080886 8.827826 3.712231 3.278194 8.697565 -0.132993 2.796925 -0.000742 -0.000005 0.000046 0.000000 0.000000 0.000000 0.000000 0.000000 0.000000 -95.474251 1.634735 3.546047 -71.736237 37.701328 -13.047212 -3.968844 -19.472038 49.152428 -1.811365 -9.820738 -17.666481 -10.329706 1.828462 40.018024 -0.000002 0.000025 -25.096024 0.000001 -0.000015 -17.238014 -0.001298 -0.000013 0.002278 -16.233412 16.324892 -9.554981 -9.670129 -0.791584 2.293367 -9.782456 0.152576 2.179980 0.000026 0.001270 -0.000021 -15.384751 6.700913 -10.965670 -10.257353 -0.886948 0.984645 -9.977596 0.067065 0.852763 -0.000478 -0.000036 -0.000079 -13.563696 -8.452124 -12.446980 -10.421489 1.835859 -1.437440 -10.290836 -0.084053 -1.117841 0.000856 0.000002 -0.000001 -9.508736 -23.863819 -16.780529 -9.353077 3.504038 -3.980011 -9.601198 -0.261296 -3.349447 -0.000569 -0.000003 -0.000030 0.000000 0.000000 0.000000 0.000000 0.000000 0.000000 -3.221889 2.779927 5.252873 -0.317079 -0.944794 18.418999 -0.356221 -0.400852 15.266171 0.170345 -0.009024 -29.202171 0.000000 0.000000 0.000000 0.000000 0.000000 0.000000 0.000000 0.000000 0.000000 12.081988 -1.044603 2.089603 0.457890 1.144954 22.544910 -6.801050 10.471568 15.481976 0.713508 0.073662 -30.448175 0.000000 0.000000 0.000000 0.000000 0.000000 0.000000 0.000000 0.000000 0.000000 
